<svg width="25" height="24" fill="none" xmlns="http://www.w3.org/2000/svg"><path fill-rule="evenodd" clip-rule="evenodd" d="M18.5 4h1c1.1 0 2 .9 2 2v14c0 1.1-.9 2-2 2h-14a2 2 0 01-2-2l.01-14c0-1.1.88-2 1.99-2h1V2h2v2h8V2h2v2zm-2 16c-.695 0-1.39-.235-2-.66a3.44 3.44 0 01-4 0c-.61.425-1.304.66-2 .66h-3V9h14v11h-3zm-8-1h-.024l-.95-3.34a.504.504 0 01.33-.64l.645-.21V12.5c0-.55.45-1 1-1H11V10h3v1.5h1.5c.55 0 1 .45 1 1v2.31l.639.21a.498.498 0 01.33.64L16.525 19H16.5c-.8 0-1.51-.44-2-1-.49.56-1.2 1-2 1s-1.51-.44-2-1c-.49.56-1.2 1-2 1zm7-6.5h-6v1.985l3-.985 3 .985V12.5z" fill="#fff" fill-opacity=".72"/></svg>