<svg width="18" height="18" fill="none" xmlns="http://www.w3.org/2000/svg"><path d="M16.5 10.667a.833.833 0 00-.833.833v3.333a.833.833 0 01-.834.834H3.167a.833.833 0 01-.834-.834V11.5a.833.833 0 10-1.666 0v3.333a2.5 2.5 0 002.5 2.5h11.666a2.5 2.5 0 002.5-2.5V11.5a.833.833 0 00-.833-.833zm-8.092 1.425c.08.075.173.135.275.175a.783.783 0 00.634 0c.102-.04.195-.1.275-.175l3.333-3.334a.837.837 0 00-1.183-1.183L9.833 9.492V1.5a.833.833 0 10-1.666 0v7.992L6.258 7.575a.837.837 0 00-1.183 1.183l3.333 3.334z" fill="#351F73"/></svg>