<svg width="107" height="14" fill="none" xmlns="http://www.w3.org/2000/svg"><path d="M10.898 8.223c.249.427.373.956.373 1.587 0 .802-.167 1.468-.5 1.996-.334.53-.771.956-1.31 1.28-.54.324-1.147.55-1.823.678a10.78 10.78 0 01-2.015.192 9.38 9.38 0 01-2.105-.23 5.177 5.177 0 01-1.773-.755 3.84 3.84 0 01-1.232-1.383c-.308-.57-.48-1.266-.513-2.085h2.182c.017.477.129.883.334 1.216.205.332.475.597.808.793.334.197.71.337 1.13.422.42.086.851.129 1.297.129a8.04 8.04 0 001.078-.077 3.959 3.959 0 001.04-.282c.316-.137.577-.337.783-.602.206-.264.309-.601.309-1.01 0-.563-.215-.99-.642-1.28-.428-.29-.963-.526-1.605-.704A26.253 26.253 0 004.62 7.62a10.87 10.87 0 01-2.092-.614A4.334 4.334 0 01.924 5.894C.496 5.416.282 4.751.282 3.897c0-.665.15-1.237.45-1.715a3.668 3.668 0 011.155-1.164c.47-.299 1-.52 1.591-.666a7.374 7.374 0 011.76-.217c.753 0 1.446.064 2.079.192a4.83 4.83 0 011.682.665c.488.316.877.742 1.168 1.28.29.537.462 1.208.514 2.009H8.498c-.035-.426-.145-.78-.334-1.062a2.172 2.172 0 00-.719-.678 3.285 3.285 0 00-.963-.371 4.95 4.95 0 00-1.065-.116c-.325 0-.655.026-.988.077-.335.051-.639.14-.911.27a1.823 1.823 0 00-.668.511c-.171.214-.257.49-.257.832 0 .375.132.687.398.934.265.248.603.452 1.014.615.411.162.873.298 1.387.409.512.111 1.027.226 1.54.345.548.12 1.083.265 1.605.436.522.17.984.396 1.387.678.402.282.726.636.974 1.062zm16.899-.731H17.634c.03 2.697 1.888 4.422 4.153 4.422 1.07 0 1.92-.313 2.675-.941a5.176 5.176 0 001.352-1.788l1.889 1.035c-.378.722-.945 1.506-1.605 2.102-1.196 1.066-2.675 1.599-4.343 1.599-3.146 0-6.45-1.976-6.45-6.806 0-3.889 2.392-6.9 6.325-6.9 2.549 0 4.153 1.255 4.94 2.384.818 1.16 1.29 3.168 1.227 4.893zM25.469 5.61c-.378-2.04-1.92-3.388-3.84-3.388-1.919 0-3.492 1.443-3.838 3.388h7.678zM42.153.66h2.22v12.755h-2.22v-1.782c-.74.952-2.127 2.15-4.378 2.15-3.239 0-6.23-2.273-6.23-6.761 0-4.395 2.961-6.67 6.23-6.67 2.467 0 3.793 1.353 4.379 2.121V.66zm.124 6.393c0-3.29-2.282-4.734-4.256-4.734-2.19 0-4.193 1.599-4.193 4.703 0 2.735 1.541 4.795 4.193 4.795 2.714 0 4.256-2.243 4.256-4.764zM85.998.215a4.609 4.609 0 00-3.744 1.82V.529h-2.266v13.016h2.266V6.739c0-.941.062-2.478.944-3.513.661-.784 1.51-1.004 2.297-1.004 1.006 0 1.699.377 2.14.941.534.69.598 1.6.598 2.384v7.998h2.265v-8.06c0-1.444-.094-2.51-.755-3.482C88.956.843 87.54.215 85.998.215zm18.622 8.97l1.888 1.035c-.378.722-.944 1.506-1.606 2.102-1.194 1.066-2.674 1.599-4.341 1.599-3.147 0-6.452-1.976-6.452-6.806 0-3.889 2.392-6.9 6.326-6.9 2.548 0 4.154 1.255 4.94 2.384.818 1.16 1.29 3.168 1.227 4.893H96.438c.032 2.697 1.888 4.422 4.154 4.422 1.07 0 1.92-.313 2.674-.941a5.175 5.175 0 001.354-1.788zM96.596 5.61h7.678c-.378-2.04-1.92-3.388-3.839-3.388-1.92 0-3.493 1.443-3.84 3.388zM70.674 0v2.355c.856.163 1.607.581 2.25 1.254a4.446 4.446 0 011.194 2.356h2.258c-.167-1.499-.792-2.827-1.894-3.98C73.38.83 72.108.173 70.674 0zm.24 11.346c-.08.023-.16.033-.24.05v2.337c1.463-.206 2.724-.858 3.78-1.964 1.087-1.137 1.723-2.474 1.915-4.01h-2.251a4.524 4.524 0 01-1.223 2.387c-.56.586-1.22.986-1.981 1.2zm-2.25-.01a4.426 4.426 0 01-1.955-1.22 4.717 4.717 0 01-1.166-2.047c-.027-.103-.042-.207-.063-.31h-2.245c.163 1.478.8 2.809 1.925 3.988 1.121 1.174 2.39 1.838 3.8 2.008v-2.351c-.097-.022-.196-.038-.296-.067zM66.682 3.64c.657-.689 1.418-1.115 2.28-1.282V.009c-1.47.199-2.748.864-3.83 1.998-1.056 1.106-1.679 2.426-1.876 3.958h2.231c.016-.083.027-.167.048-.251a4.602 4.602 0 011.147-2.075zm-6.613-1.612V.572H49.685v1.881h7.35l-7.853 9.461v1.631h10.975v-1.882h-8.043l7.955-9.636z" fill="#351F73"/></svg>